2.2Hz3min_grf.mot
version=1
nRows=15
nColumns 19
inDegrees=yes
endheader
time	1_ground_force_vx	1_ground_force_vy	1_ground_force_vz	1_ground_force_px	1_ground_force_py	1_ground_force_pz	1_ground_torque_x	1_ground_torque_y	1_ground_torque_z	2_ground_force_vx	2_ground_force_vy	2_ground_force_vz	2_ground_force_px	2_ground_force_py	2_ground_force_pz	2_ground_torque_x	2_ground_torque_y	2_ground_torque_z
            3.751500	            0.093409	            0.537669	            0.735786	           -0.233013	            0.005581	           -0.255695	           -0.107259	           -0.063689	           -0.221694	           17.206470	           35.243455	           -2.275207	           -0.318358	            0.005253	           -0.674997	           -0.092940	           -0.190366	            0.012289
            3.752000	            0.139512	            0.357019	            0.826611	           -0.233013	            0.005581	           -0.255695	           -0.111019	            0.028688	           -0.200529	           16.264258	           36.712421	           -2.034912	           -0.317378	            0.005256	           -0.674667	           -0.072621	           -0.163923	            0.009086
            3.752500	            0.047907	            0.537070	            0.873467	           -0.233013	            0.005581	           -0.255695	           -0.150505	            0.037642	           -0.147914	           15.415622	           38.182731	           -2.076225	           -0.315391	            0.005268	           -0.675952	           -0.019325	           -0.047867	            0.002603
            3.753000	            0.047419	            0.718122	            0.690817	           -0.233013	            0.005581	           -0.255695	           -0.124118	            0.019315	           -0.185661	           15.040700	           38.182381	           -2.357634	           -0.315063	            0.005248	           -0.670017	           -0.055735	           -0.141488	            0.008736
            3.753500	            0.185077	            1.258553	            0.784506	           -0.233013	            0.005581	           -0.255695	           -0.146945	            0.009811	           -0.104608	           14.752646	           40.025360	           -3.054865	           -0.311614	            0.005266	           -0.671565	           -0.023162	           -0.062841	            0.004796
            3.754000	            0.093687	           -0.363856	            0.777777	           -0.233013	            0.005581	           -0.255695	           -0.127500	           -0.063530	           -0.259207	           14.560183	           41.317069	           -3.988748	           -0.313161	            0.005270	           -0.674364	           -0.005042	           -0.014308	            0.001381
            3.754500	            0.093394	           -0.002931	            0.687611	           -0.233013	            0.005581	           -0.255695	           -0.104776	           -0.027039	           -0.146331	           14.701191	           41.135102	           -4.458746	           -0.313553	            0.005260	           -0.672018	           -0.068886	           -0.192747	            0.020892
            3.755000	            0.048575	           -0.004710	            1.100428	           -0.233013	            0.005581	           -0.255695	           -0.178833	           -0.036061	           -0.204535	           14.138266	           41.317723	           -4.598634	           -0.313299	            0.005258	           -0.671135	           -0.077739	           -0.227185	            0.025286
            3.755500	            0.002358	            0.176137	            0.963747	           -0.233013	            0.005581	           -0.255695	           -0.173051	            0.019294	           -0.187475	           13.246953	           41.681466	           -4.221517	           -0.309398	            0.005277	           -0.672566	           -0.077290	           -0.243194	            0.024631
            3.756000	            0.231052	            0.537499	            0.781301	           -0.233013	            0.005581	           -0.255695	           -0.127655	           -0.008732	           -0.083957	           11.982897	           41.490910	           -3.705427	           -0.310315	            0.005279	           -0.674013	           -0.035859	           -0.124161	            0.011088
            3.756500	            0.001837	            0.537455	            0.781869	           -0.233013	            0.005581	           -0.255695	           -0.202817	            0.009716	           -0.112263	           10.673341	           40.931720	           -3.143703	           -0.306127	            0.005294	           -0.674093	           -0.014765	           -0.056621	            0.004349
            3.757000	            0.231001	            1.438631	            0.831021	           -0.233013	            0.005581	           -0.255695	           -0.092970	           -0.017403	           -0.215699	            9.834571	           39.640641	           -3.429512	           -0.308831	            0.005279	           -0.672614	            0.006838	            0.027561	           -0.002384
            3.757500	            0.230953	            1.078296	            0.783619	           -0.233013	            0.005581	           -0.255695	           -0.146951	           -0.063874	           -0.159357	            9.178173	           39.821082	           -3.053151	           -0.306695	            0.005294	           -0.674629	           -0.005871	           -0.025471	            0.001953
            3.758000	            0.139447	            0.717550	            0.828157	           -0.233013	            0.005581	           -0.255695	           -0.129914	           -0.054667	           -0.163256	            8.524851	           39.082790	           -3.243213	           -0.305865	            0.005283	           -0.670632	           -0.022997	           -0.105434	            0.008749
            3.758500	            0.093457	            0.898004	            0.783188	           -0.233013	            0.005581	           -0.255695	           -0.109447	           -0.054444	           -0.221662	            8.201533	           37.792735	           -3.294601	           -0.308249	            0.005259	           -0.666434	           -0.055363	           -0.255114	            0.022240
